<?xml version="1.0" standalone="no"?><!DOCTYPE svg PUBLIC "-//W3C//DTD SVG 1.1//EN" "http://www.w3.org/Graphics/SVG/1.1/DTD/svg11.dtd"><svg class="icon" width="256px" height="256.00px" viewBox="0 0 1024 1024" version="1.1" xmlns="http://www.w3.org/2000/svg"><path fill="#ffffff" d="M863.552 398.816c-1.568 6.56-5.376 16.16-10.752 27.744h0.128l-0.64 1.056c-31.264 67.072-112.96 198.592-112.96 198.592s-0.128-0.32-0.448-0.8l-23.872 41.6h115.072l-219.776 292.736 49.888-199.136H569.6l31.456-131.68c-25.44 6.144-55.52 14.624-91.168 26.08 0 0-48.192 28.288-138.88-54.4 0 0-61.12-53.92-25.664-67.424 15.072-5.728 73.184-12.992 118.912-19.2 61.792-8.32 99.84-12.8 99.84-12.8s-190.56 2.88-235.744-4.256c-45.216-7.104-102.528-82.656-114.752-149.056 0 0-18.88-36.448 40.64-19.2 59.52 17.28 305.824 67.2 305.824 67.2S239.712 297.504 218.4 273.504c-21.312-24-62.72-131.008-57.344-196.768 0 0 2.336-16.384 19.136-12 0 0 236.832 108.416 398.784 167.744s302.752 89.536 284.576 166.336z"  /></svg>