<?xml version="1.0" standalone="no"?><!DOCTYPE svg PUBLIC "-//W3C//DTD SVG 1.1//EN" "http://www.w3.org/Graphics/SVG/1.1/DTD/svg11.dtd"><svg class="icon" width="256px" height="256.00px" viewBox="0 0 1024 1024" version="1.1" xmlns="http://www.w3.org/2000/svg"><path fill="#ffffff" d="M512 512m-90.112 0a90.112 90.112 0 1 0 180.224 0 90.112 90.112 0 1 0-180.224 0ZM512 0C229.376 0 0 229.376 0 512s229.376 512 512 512 512-229.376 512-512S794.624 0 512 0z m272.384 581.632c-6.144 25.6-16.384 50.176-29.696 71.68-3.072 5.12-7.168 9.216-12.288 11.264l-3.072-3.072c-21.504-21.504-56.32-21.504-77.824 0-21.504 21.504-21.504 56.32 0 77.824l3.072 3.072c-2.048 5.12-6.144 9.216-11.264 12.288-22.528 13.312-46.08 23.552-71.68 29.696-5.12 1.024-10.24 1.024-15.36 0v-4.096c0-30.72-24.576-55.296-55.296-55.296-30.72 0-55.296 24.576-55.296 55.296v5.12c-5.12 1.024-10.24 2.048-15.36 0-25.6-6.144-50.176-16.384-71.68-29.696-5.12-3.072-9.216-7.168-11.264-12.288l3.072-3.072c21.504-21.504 21.504-56.32 0-77.824-21.504-21.504-56.32-21.504-77.824 0l-3.072 3.072c-5.12-2.048-9.216-6.144-12.288-11.264-13.312-22.528-23.552-46.08-29.696-71.68-1.024-5.12-1.024-10.24 0-15.36h4.096c30.72 0 55.296-24.576 55.296-55.296 0-30.72-24.576-55.296-55.296-55.296h-5.12c-1.024-5.12-2.048-10.24 0-15.36 6.144-25.6 16.384-50.176 29.696-71.68 3.072-5.12 7.168-9.216 12.288-11.264l3.072 3.072c21.504 21.504 56.32 21.504 77.824 0 21.504-21.504 21.504-56.32 0-77.824l-3.072-3.072c2.048-5.12 6.144-9.216 11.264-12.288 22.528-13.312 46.08-23.552 71.68-29.696 5.12-1.024 10.24-1.024 15.36 0v5.12c0 30.72 24.576 55.296 55.296 55.296 30.72 0 55.296-24.576 55.296-55.296v-5.12c5.12-1.024 10.24-2.048 15.36 0 25.6 6.144 50.176 16.384 71.68 29.696 5.12 3.072 9.216 7.168 11.264 12.288l-3.072 3.072c-21.504 21.504-21.504 56.32 0 77.824 21.504 21.504 56.32 21.504 77.824 0l3.072-3.072c5.12 2.048 9.216 6.144 12.288 11.264 13.312 22.528 23.552 46.08 29.696 71.68 1.024 5.12 1.024 10.24 0 15.36h-4.096c-30.72 0-55.296 24.576-55.296 55.296s24.576 55.296 55.296 55.296h5.12c1.024 4.096 1.024 9.216 0 14.336z" /></svg>