<?xml version="1.0" standalone="no"?><!DOCTYPE svg PUBLIC "-//W3C//DTD SVG 1.1//EN" "http://www.w3.org/Graphics/SVG/1.1/DTD/svg11.dtd"><svg class="icon" width="256px" height="256.00px" viewBox="0 0 1024 1024" version="1.1" xmlns="http://www.w3.org/2000/svg"><path fill="#ffffff" d="M700.8256 701.2864c26.88 26.9312 59.392 43.1104 95.4368 53.248l12.1344 3.1232c25.2928 4.608 38.5536 27.648 39.68 51.2 0 27.648-20.1216 51.2-47.7696 55.2448-26.4192 3.4304-54.0672-13.2608-59.8016-39.7312-8.0384-40.8064-25.344-76.4928-55.2448-106.3936-3.4304-3.4816-1.1264-10.9568-2.304-16.6912l13.4656-1.024c2.048 0 3.584 0.256 4.4032 1.024z m48.896-521.216c56.32 59.8016 87.4496 130.56 88.576 212.8384a109.2096 109.2096 0 0 0-45.4656-9.728h-2.304a109.2096 109.2096 0 0 0-104.0896 96.6144 120.2688 120.2688 0 0 0 0 28.7744c-20.1728 20.1216-44.9024 32.768-75.3664 37.9392h-0.6144a105.1648 105.1648 0 0 0-44.288 184.6784 416.3584 416.3584 0 0 1-106.4448 17.8688 481.3824 481.3824 0 0 1-137.472-13.2608 50.0224 50.0224 0 0 0-22.4256 2.304l-104.1408 51.2c-13.2608 6.912-25.344 8.0384-36.864-1.1264-10.9056-8.0896-12.032-20.1728-10.9056-34.56 4.608-28.7232 8.0896-57.4976 10.9568-86.272a31.1296 31.1296 0 0 0-8.0896-18.944c-45.4144-45.5168-84.5312-95.5392-104.0896-158.8224-36.864-125.44-3.4816-232.96 87.4496-322.7648C300.3904 3.9936 590.848 11.4688 749.7216 180.0704z m207.104 414.7712c28.7744 3.4816 50.0224 26.4704 50.0224 55.2448 0 27.648-16.6912 50.0224-44.288 55.2448-33.792 6.144-64.3072 20.48-89.7024 42.496l-9.216 8.704c-5.7856 5.7344-14.3872 10.9056-20.1728 2.304-2.304-4.608-1.1264-15.5648 2.304-18.9952a186.0096 186.0096 0 0 0 51.2-100.7104 54.784 54.784 0 0 1 59.8528-44.288z m-215.1936-51.7632c-1.1264 5.7344 1.1776 14.336-2.304 17.8176-28.7232 28.7744-44.288 63.2832-52.3264 103.0144-5.7856 28.7232-32.256 45.4144-59.8528 40.8064-27.648-4.608-48.3328-28.7744-48.3328-55.808 0-24.1664 17.8688-46.592 41.984-51.2a190.4128 190.4128 0 0 0 103.0144-52.3264c3.4304-3.4816 12.0832-2.304 17.8176-2.304z m51.2-108.1856c25.344 0 48.896 16.6912 54.1184 43.1616 6.8608 39.68 24.1664 74.24 52.3264 102.9632 3.4816 3.4816 1.1776 13.2608 2.304 18.9952-6.912 0-15.5136 2.304-18.944-1.1264-28.8256-29.952-64.512-45.4656-104.192-54.0672a53.6576 53.6576 0 0 1-40.8064-58.7264c3.9936-28.7232 26.4704-50.0224 55.1936-51.2z" /></svg>